<?xml version="1.0" encoding="utf-8"?>
<!-- Generator: Adobe Illustrator 24.3.0, SVG Export Plug-In . SVG Version: 6.00 Build 0)  -->
<svg version="1.1" id="Layer_1" xmlns="http://www.w3.org/2000/svg" xmlns:xlink="http://www.w3.org/1999/xlink" x="0px" y="0px"
	 viewBox="0 0 110 50" style="enable-background:new 0 0 110 50;" xml:space="preserve">
<style type="text/css">
	.st0{fill:#1D1D1D;}
</style>
<g>
	<path class="st0" d="M71.86,43.14c-3.84,0-6.78-0.23-7.86-0.48c-2.59-0.62-4.75-1.67-6.85-2.69c-4.29-2.09-8.34-4.06-15.59-2.21
		c-7.23,1.85-16.86,2.32-22.2-1.9c-2.64-2.09-3.94-5.1-3.87-8.95c0.08-4.23,2.03-7.6,5.63-9.76c5.59-3.35,13.75-2.97,17.15-1.23
		c4.35,2.23,10.06-0.4,10.12-0.42c7.41-3.92,14.35-4.1,14.42-4.1c12.51-1.73,32.76,6.56,37.59,10.39c4.99,3.95,4.61,8.04,4.56,8.45
		c0,2.5-1.18,4.7-3.5,6.53C95,41.87,80.92,43.14,71.86,43.14z M47,36.32c4.24,0,7.29,1.48,10.46,3.02c2.06,1,4.19,2.04,6.7,2.64
		c3.56,0.85,27.82,1.39,36.88-5.77c2.15-1.7,3.23-3.72,3.23-6c0-0.02,0-0.04,0-0.05c0.01-0.04,0.51-4.02-4.3-7.83
		c-4.76-3.77-24.72-11.95-37.1-10.24c-0.11,0-6.9,0.19-14.17,4.03c-0.26,0.12-6.08,2.81-10.75,0.42c-3.25-1.67-11.1-2.01-16.47,1.21
		c-3.44,2.06-5.21,5.14-5.29,9.18c-0.07,3.62,1.15,6.44,3.6,8.39c5.13,4.06,14.52,3.58,21.59,1.77C43.5,36.54,45.34,36.32,47,36.32z
		"/>
	<path class="st0" d="M73.95,47.16c-3.79,0-6.72-0.23-7.88-0.51c-2.59-0.62-4.75-1.67-6.85-2.69c-4.29-2.09-8.35-4.06-15.59-2.21
		c-7.24,1.85-16.87,2.32-22.2-1.9c-2.64-2.09-3.94-5.1-3.87-8.95c0.08-4.23,2.02-7.6,5.63-9.76c5.58-3.34,13.75-2.97,17.15-1.23
		c4.36,2.23,10.06-0.4,10.12-0.42c7.41-3.92,14.35-4.1,14.42-4.1c3.25-0.45,7.31-0.23,12.04,0.65c0.17,0.03,0.29,0.18,0.29,0.34
		v30.4c0,0.19-0.15,0.34-0.34,0.35C75.86,47.14,74.88,47.16,73.95,47.16z M49.07,40.31c4.24,0,7.29,1.48,10.46,3.02
		c2.06,1,4.19,2.04,6.7,2.64c1.38,0.33,5.33,0.59,10.29,0.45V16.66c-4.54-0.82-8.43-1.02-11.57-0.58c-0.11,0-6.9,0.19-14.17,4.03
		c-0.26,0.12-6.09,2.81-10.75,0.42c-3.25-1.66-11.1-2.01-16.47,1.21c-3.44,2.06-5.21,5.14-5.29,9.18c-0.07,3.62,1.15,6.44,3.61,8.39
		c5.13,4.06,14.52,3.58,21.59,1.77C45.57,40.54,47.41,40.31,49.07,40.31z"/>
	<path class="st0" d="M14.8,7.56c-0.19,0-0.35-0.16-0.35-0.35V3.19c0-0.19,0.16-0.35,0.35-0.35c0.19,0,0.35,0.16,0.35,0.35v4.01
		C15.15,7.4,14.99,7.56,14.8,7.56z"/>
	<path class="st0" d="M104.61,5.55h-2.11v-0.7h2.11V5.55z M101.09,5.55h-2.11v-0.7h2.11V5.55z M97.57,5.55h-2.11v-0.7h2.11V5.55z
		 M94.05,5.55h-2.11v-0.7h2.11V5.55z M90.53,5.55h-2.11v-0.7h2.11V5.55z M87.01,5.55H84.9v-0.7h2.11V5.55z M83.49,5.55h-2.11v-0.7
		h2.11V5.55z M79.97,5.55h-2.11v-0.7h2.11V5.55z M76.45,5.55h-2.11v-0.7h2.11V5.55z M72.93,5.55h-2.11v-0.7h2.11V5.55z M69.41,5.55
		H67.3v-0.7h2.11V5.55z M65.89,5.55h-2.11v-0.7h2.11V5.55z M62.37,5.55h-2.11v-0.7h2.11V5.55z M58.85,5.55h-2.11v-0.7h2.11V5.55z
		 M55.33,5.55h-2.11v-0.7h2.11V5.55z M51.81,5.55H49.7v-0.7h2.11V5.55z M48.29,5.55h-2.11v-0.7h2.11V5.55z M44.77,5.55h-2.11v-0.7
		h2.11V5.55z M41.25,5.55h-2.11v-0.7h2.11V5.55z M37.73,5.55h-2.11v-0.7h2.11V5.55z M34.21,5.55H32.1v-0.7h2.11V5.55z M30.69,5.55
		h-2.11v-0.7h2.11V5.55z M27.17,5.55h-2.11v-0.7h2.11V5.55z M23.65,5.55h-2.11v-0.7h2.11V5.55z M20.13,5.55h-2.11v-0.7h2.11V5.55z
		 M16.61,5.55H14.5v-0.7h2.11V5.55z"/>
	<path class="st0" d="M104.29,7.56c-0.19,0-0.35-0.16-0.35-0.35V3.19c0-0.19,0.16-0.35,0.35-0.35c0.19,0,0.35,0.16,0.35,0.35v4.01
		C104.64,7.4,104.49,7.56,104.29,7.56z"/>
	<path class="st0" d="M9.37,13.62H5.35C5.16,13.62,5,13.47,5,13.27c0-0.19,0.16-0.35,0.35-0.35h4.01c0.19,0,0.35,0.16,0.35,0.35
		C9.72,13.47,9.56,13.62,9.37,13.62z"/>
	<path class="st0" d="M7.71,46.65h-0.7v-2.11h0.7V46.65z M7.71,43.14h-0.7v-2.11h0.7V43.14z M7.71,39.63h-0.7v-2.11h0.7V39.63z
		 M7.71,36.12h-0.7v-2.11h0.7V36.12z M7.71,32.61h-0.7v-2.11h0.7V32.61z M7.71,29.1h-0.7V27h0.7V29.1z M7.71,25.59h-0.7v-2.11h0.7
		V25.59z M7.71,22.08h-0.7v-2.11h0.7V22.08z M7.71,18.57h-0.7v-2.11h0.7V18.57z M7.71,15.06h-0.7v-2.1h0.7V15.06z"/>
	<path class="st0" d="M9.37,46.69H5.35C5.16,46.69,5,46.53,5,46.34s0.16-0.35,0.35-0.35h4.01c0.19,0,0.35,0.16,0.35,0.35
		S9.56,46.69,9.37,46.69z"/>
</g>
</svg>
