<?xml version="1.0" encoding="utf-8"?>
<!-- Generator: Adobe Illustrator 24.1.3, SVG Export Plug-In . SVG Version: 6.00 Build 0)  -->
<svg version="1.1" xmlns="http://www.w3.org/2000/svg" xmlns:xlink="http://www.w3.org/1999/xlink" x="0px" y="0px"
viewBox="0 0 250 43" style="enable-background:new 0 0 250 43;" xml:space="preserve">
<style type="text/css">
.st0{fill:#1D1D1D;}
</style>
<g id="Layer_1">
<g>
<path class="st0" d="M244.97,4.38V2.95h1.02c0.17,0,0.32,0.06,0.45,0.17c0.12,0.12,0.19,0.3,0.19,0.54c0,0.23-0.05,0.4-0.16,0.52
c-0.11,0.12-0.26,0.19-0.45,0.19H244.97z M243.89,6.97h1.07V5.3h0.72l1.04,1.67h1.21l-1.16-1.87c0.27-0.11,0.49-0.29,0.65-0.56
c0.17-0.27,0.25-0.56,0.25-0.87c0-0.2-0.04-0.4-0.12-0.6c-0.08-0.2-0.19-0.37-0.33-0.53c-0.14-0.16-0.31-0.29-0.5-0.38
c-0.2-0.1-0.41-0.15-0.63-0.15h-2.2V6.97z M244.27,7.76c-0.44-0.18-0.82-0.43-1.14-0.75c-0.32-0.32-0.57-0.69-0.75-1.12
c-0.18-0.43-0.27-0.89-0.27-1.39c0-0.49,0.09-0.95,0.27-1.37c0.18-0.43,0.43-0.8,0.75-1.11c0.32-0.32,0.7-0.56,1.14-0.74
C244.71,1.09,245.2,1,245.72,1c0.53,0,1.01,0.09,1.46,0.27c0.44,0.18,0.83,0.43,1.15,0.74c0.32,0.32,0.58,0.69,0.76,1.12
c0.18,0.43,0.28,0.89,0.28,1.39c0,0.51-0.09,0.98-0.28,1.42c-0.19,0.43-0.45,0.8-0.77,1.11c-0.33,0.31-0.71,0.55-1.16,0.72
c-0.44,0.17-0.92,0.26-1.43,0.26C245.2,8.03,244.71,7.94,244.27,7.76 M247.42,8.28c0.52-0.21,0.98-0.49,1.36-0.86
s0.68-0.8,0.9-1.29S250,5.09,250,4.5c0-0.58-0.11-1.12-0.32-1.61s-0.51-0.93-0.9-1.29s-0.84-0.65-1.36-0.85
c-0.52-0.21-1.09-0.31-1.7-0.31c-0.61,0-1.17,0.1-1.69,0.31c-0.52,0.21-0.97,0.49-1.35,0.85c-0.38,0.36-0.68,0.79-0.89,1.29
s-0.32,1.03-0.32,1.61c0,0.59,0.11,1.13,0.32,1.63s0.51,0.93,0.89,1.29c0.38,0.36,0.83,0.65,1.35,0.86
c0.52,0.21,1.08,0.31,1.69,0.31C246.33,8.59,246.9,8.48,247.42,8.28"/>
<polygon class="st0" points="37.16,23.64 29.89,1.5 29.84,1.36 24.72,1.36 16.95,23.1 9.97,1.36 0,1.36 12.26,41.5 12.31,41.65 
17.55,41.53 25.39,18.74 33.29,41.39 33.34,41.53 38.12,41.53 50.77,1.36 44.13,1.48 		"/>
<rect x="98.03" y="1.36" class="st0" width="10.18" height="40.28"/>
<polygon class="st0" points="76.48,10.09 66.44,10.09 66.44,1.36 56.26,1.36 56.26,41.65 66.44,41.65 66.44,15.92 76.48,15.92 
76.48,41.65 86.66,41.65 86.66,1.36 76.48,1.36 		"/>
<polygon class="st0" points="114.36,7.21 126.76,7.21 126.76,41.65 136.94,41.65 136.94,7.21 149.34,7.21 149.34,1.39 
114.36,1.39 		"/>
<polygon class="st0" points="155.48,1.39 155.48,41.65 184.85,41.65 184.85,34.81 165.66,34.81 165.66,19.27 175.78,19.27 
175.78,13.45 165.66,13.45 165.66,7.21 184.85,7.21 184.85,1.39 155.69,1.36 		"/>
<path class="st0" d="M195.23,0.44L195.23,0.44c-0.1-0.01-2.49-0.15-4.05,1.31c-0.85,0.8-1.28,1.92-1.28,3.32
c0,4.41,4.24,5.19,5.14,5.3c0.51,3.51-3.78,5.78-3.82,5.8l-0.17,0.09l0.96,2.09l0.18-0.06c0.09-0.03,8.87-3.11,8.87-10.41
C201.05,0.55,195.3,0.44,195.23,0.44"/>
<path class="st0" d="M239.08,22.7c-2.22-4.44-6.86-7.15-14.94-7.69c-4.24-0.28-5.92-1.48-6.74-2.42
c-0.76-0.87-0.73-1.69-0.73-1.74c-0.01-0.04-0.11-0.96,0.65-1.88c0.96-1.15,2.88-1.76,5.56-1.76h0.06
c7.07,0.03,11.22,2.38,11.22,2.38l2.21-5.19l0.09-0.18l-0.17-0.1c-5.05-3.02-12.13-3.68-14.43-3.68c-0.84,0-5.27,0.09-9.29,1.91
c-4.7,2.12-7.07,5.69-7.07,10.6c0,10.29,13.43,11.7,19.29,12.27l0.09,0.01c2.7,0.26,4.37,2.43,4.24,4.52
c-0.01,2.76-2.7,4.02-2.79,4.07c-9.64,4.27-20.74-3.59-20.74-3.59l-2.94,5.5l0.11,0.12c6.74,6.73,18.15,6.72,18.46,6.73h0.01
c4.58,0,12.67-0.9,16.78-8.28C240.3,30.43,240.36,25.2,239.08,22.7"/>
</g>
</g>
<g id="Kerning">
</g>
</svg>
