<?xml version="1.0" encoding="utf-8"?>
<!-- Generator: Adobe Illustrator 24.1.3, SVG Export Plug-In . SVG Version: 6.00 Build 0)  -->
<svg version="1.1" id="Layer_1" xmlns="http://www.w3.org/2000/svg" xmlns:xlink="http://www.w3.org/1999/xlink" x="0px" y="0px"
	 viewBox="0 0 18 20" style="enable-background:new 0 0 18 20;" xml:space="preserve">
<style type="text/css">
	.st0{fill:#1D1D1D;}
</style>
<g>
	<path class="st0" d="M9,10.88c-3,0-5.44-2.44-5.44-5.44S6,0,9,0s5.44,2.44,5.44,5.44S12,10.88,9,10.88z M9,1.56
		c-2.14,0-3.89,1.74-3.89,3.89c0,2.14,1.74,3.89,3.89,3.89s3.89-1.74,3.89-3.89C12.89,3.3,11.14,1.56,9,1.56z"/>
	<path class="st0" d="M17.07,20c-0.43,0-0.78-0.35-0.78-0.78c0-4.6-3.27-8.34-7.29-8.34s-7.29,3.74-7.29,8.34
		c0,0.43-0.35,0.78-0.78,0.78s-0.78-0.35-0.78-0.78c0-5.46,3.97-9.9,8.85-9.9s8.85,4.44,8.85,9.9C17.85,19.65,17.5,20,17.07,20z"/>
</g>
</svg>