<?xml version="1.0" encoding="utf-8"?>
<!-- Generator: Adobe Illustrator 24.1.3, SVG Export Plug-In . SVG Version: 6.00 Build 0)  -->
<svg version="1.1" id="Layer_1" xmlns="http://www.w3.org/2000/svg" xmlns:xlink="http://www.w3.org/1999/xlink" x="0px" y="0px"
	 viewBox="0 0 510 100" style="enable-background:new 0 0 510 100;" xml:space="preserve">
<style type="text/css">
	.st0{fill:#1D1D1D;}
</style>
<g>
	<polygon class="st0" points="21.74,51.3 5,51.3 5,97.45 35.85,97.45 35.85,82.57 21.74,82.57 	"/>
	<polygon class="st0" points="56.82,80.36 69.89,80.36 69.89,68.25 56.82,68.25 56.82,63.96 71.21,63.96 71.21,51.3 40.08,51.3 
		40.08,97.45 71.62,97.45 71.62,84.79 56.82,84.79 	"/>
	<path class="st0" d="M125.93,70.61H99.99v10.93h7.61c-1.11,3.04-4.36,3.94-6.85,3.94c-2.35,0-4.15-0.83-5.47-2.08
		c-2.01-1.94-3.04-5.12-3.04-8.23c0-4.01,1.52-6.99,3.39-8.72c1.45-1.31,3.46-2.14,5.88-2.14c3.53,0,5.4,2.01,6.36,3.53l15.63-5.81
		c-2.14-3.74-4.91-6.36-8.86-8.51c-4.29-2.28-8.58-3.25-13.56-3.25c-9.27,0-15.63,3.39-19.37,7.26c-3.11,3.18-6.36,8.51-6.36,16.95
		c0,6.09,1.59,11.69,5.95,16.4c3.46,3.74,9.34,7.61,19.02,7.61c7.61,0,15.01-2.63,19.58-7.54c5.53-5.95,6.02-13.63,6.02-19.3V70.61z
		"/>
	<path class="st0" d="M140.4,51.3l-15.98,46.14h17.71l1.25-5.74h12.73l1.52,5.74h17.78L158.94,51.3H140.4z M146.48,80.78l2.28-8.86
		c0.41-1.66,0.69-3.25,0.76-5.19h0.62c0.21,1.66,0.48,3.39,0.9,5.19l2.14,8.86H146.48z"/>
	<path class="st0" d="M200.93,65.07c4.22,0,7.82,2.63,9.76,4.57l-0.48-17.57c-3.67-1.25-7.54-1.8-11-1.8
		c-8.65,0-14.18,3.74-17.43,6.99c-4.22,4.29-6.92,10.38-6.92,17.5c0,6.5,2.35,12.73,6.71,17.02c4.57,4.57,11,6.71,17.02,6.71
		c2.14,0,7.26-0.21,11.62-1.87l0.48-17.23c-1.38,1.52-4.64,4.36-9.34,4.36c-3.32,0-5.47-1.31-6.85-2.63c-1.8-1.73-2.7-4.15-2.7-6.64
		c0-2.42,0.83-4.84,2.42-6.57C195.88,66.11,198.3,65.07,200.93,65.07z"/>
	<path class="st0" d="M237.19,59.74c-0.42,1.04-0.9,1.73-1.25,3.67h-0.48c-0.42-1.73-0.97-3.04-1.25-3.67l-3.94-8.44h-18.96
		l16.05,26.29v19.86h16.53V77.59l15.77-26.29h-18.89L237.19,59.74z"/>
	<path class="st0" d="M308.58,73.79l0.07-0.42c1.66-0.62,3.11-1.73,4.01-2.84c1.73-2.14,1.94-4.64,1.94-6.36
		c0-5.19-2.42-7.96-3.53-8.99c-3.67-3.46-9.82-3.87-13.77-3.87h-20.13v46.14h23.45c3.25,0,7.96-0.41,11.83-3.53
		c3.18-2.56,4.36-5.74,4.36-9.34c0-3.32-1.11-5.81-3.39-8.02C311.97,75.17,310.45,74.27,308.58,73.79z M292.67,62.37h2.63
		c0.62,0,2.14,0.07,3.04,0.76c0.42,0.35,1.04,1.11,1.04,2.42c0,1.24-0.48,2.01-0.9,2.42c-0.76,0.76-2.21,1.04-3.18,1.04h-2.63V62.37
		z M299.59,85.55c-1.11,0.69-2.56,0.76-3.53,0.76h-3.39V78.7h3.6c0.9,0,2.56,0.07,3.67,0.97c0.76,0.62,1.24,1.59,1.24,2.77
		C301.18,83.96,300.42,84.99,299.59,85.55z"/>
	<path class="st0" d="M346.15,50.27c-8.79,0-15.22,3.39-19.16,7.4c-3.6,3.67-6.43,9.34-6.43,16.67c0,7.4,2.84,13.08,6.43,16.74
		c3.94,4.01,10.38,7.4,19.16,7.4c8.79,0,15.22-3.39,19.16-7.4c3.6-3.67,6.43-9.34,6.43-16.74c0-7.33-2.84-13.01-6.43-16.67
		C361.37,53.66,354.94,50.27,346.15,50.27z M352.17,81.26c-1.38,1.38-3.46,2.35-6.02,2.35c-2.56,0-4.64-0.97-6.02-2.35
		c-1.66-1.66-2.63-4.22-2.63-6.85c0-2.49,0.97-5.19,2.63-6.92c1.11-1.18,3.04-2.35,6.02-2.35c2.77,0,4.77,1.11,6.02,2.35
		c1.66,1.59,2.63,4.01,2.63,6.92C354.8,77.32,353.69,79.74,352.17,81.26z"/>
	<path class="st0" d="M402.47,50.27c-8.79,0-15.22,3.39-19.16,7.4c-3.6,3.67-6.43,9.34-6.43,16.67c0,7.4,2.84,13.08,6.43,16.74
		c3.94,4.01,10.38,7.4,19.16,7.4c8.79,0,15.22-3.39,19.16-7.4c3.6-3.67,6.43-9.34,6.43-16.74c0-7.33-2.84-13.01-6.43-16.67
		C417.69,53.66,411.25,50.27,402.47,50.27z M408.49,81.26c-1.38,1.38-3.46,2.35-6.02,2.35c-2.56,0-4.64-0.97-6.02-2.35
		c-1.66-1.66-2.63-4.22-2.63-6.85c0-2.49,0.97-5.19,2.63-6.92c1.11-1.18,3.04-2.35,6.02-2.35c2.77,0,4.77,1.11,6.02,2.35
		c1.66,1.59,2.63,4.01,2.63,6.92C411.12,77.32,410.01,79.74,408.49,81.26z"/>
	<polygon class="st0" points="430.42,66.32 439.83,65.9 439.83,97.45 456.3,97.45 456.3,65.9 465.7,66.32 465.7,51.3 430.42,51.3 	
		"/>
	<path class="st0" d="M501.47,72.61c-1.38-1.38-3.8-3.04-7.89-3.94l-5.33-1.18c-2.56-0.55-2.7-1.45-2.7-2.42
		c0-0.69,0.21-1.18,0.83-1.66c0.9-0.69,2.28-0.83,3.18-0.83c3.74,0,7.4,2.08,9.41,3.46l4.5-11.76c-5.6-3.39-10.38-4.01-14.04-4.01
		c-7.33,0-12.52,2.35-16.05,5.95c-3.04,3.04-4.5,6.71-4.5,11c0,3.32,0.97,6.09,3.32,8.51c2.56,2.63,5.4,3.46,8.03,3.94l4.08,0.76
		c1.73,0.35,2.63,0.55,3.18,1.11c0.48,0.48,0.55,1.18,0.55,1.59c0,0.69-0.14,1.45-0.9,2.08c-0.35,0.28-1.31,0.83-3.6,0.83
		c-4.08,0-7.61-2.08-9.34-3.39l-1.8-1.38l-5.05,13.01l1.52,0.62c3.94,1.59,8.65,3.6,15.7,3.6c8.65,0,13.63-3.18,16.26-5.88
		c3.11-3.25,4.15-6.92,4.15-10.86C505,78.98,504.38,75.45,501.47,72.61z"/>
	<polygon class="st0" points="156.99,15.52 41.8,18.09 41.8,20.85 156.99,23.42 	"/>
	<polygon class="st0" points="468.2,18.09 353.01,15.52 353.01,23.42 468.2,20.85 	"/>
	<path class="st0" d="M186.14,32.08c1.11,0,1.9-0.01,2.37-0.04c0.47-0.03,0.76-0.08,0.85-0.17c0.1-0.08,0.15-0.24,0.15-0.46V6.13
		h5.11c0.25,0,0.43-0.05,0.54-0.15c0.11-0.1,0.17-0.27,0.17-0.52V2.97h-14.14c-0.47,0-0.71,0.22-0.71,0.66v2.5h5.66V32.08z"/>
	<path class="st0" d="M200.75,31.87c0.1-0.08,0.15-0.24,0.15-0.46V15.15c0.5-0.44,1.02-0.75,1.58-0.91
		c0.55-0.17,1.07-0.25,1.54-0.25c1.03,0,1.68,0.32,1.98,0.96c0.29,0.64,0.44,1.41,0.44,2.33v14.8c1.08,0,1.86-0.01,2.35-0.04
		c0.48-0.03,0.79-0.08,0.91-0.17c0.13-0.08,0.19-0.24,0.19-0.46V16.36c0-1.19-0.11-2.19-0.33-2.99c-0.22-0.8-0.64-1.42-1.27-1.85
		c-0.62-0.43-1.53-0.64-2.72-0.64c-0.78,0-1.59,0.13-2.43,0.4c-0.85,0.26-1.59,0.67-2.22,1.23V1.51c-0.92,0-1.62,0.02-2.1,0.06
		c-0.49,0.04-0.82,0.17-1,0.37c-0.18,0.21-0.27,0.58-0.27,1.1v29.03c1.11,0,1.9-0.01,2.37-0.04
		C200.37,32.01,200.66,31.95,200.75,31.87z"/>
	<path class="st0" d="M214.98,30.67c0.6,0.69,1.3,1.17,2.12,1.43c0.82,0.26,1.7,0.4,2.64,0.4c1.05,0,2.02-0.1,2.89-0.29
		c0.87-0.19,1.57-0.47,2.1-0.83c0.53-0.36,0.79-0.75,0.79-1.16c0-0.33-0.02-0.71-0.06-1.14c-0.04-0.43-0.13-0.81-0.27-1.14
		c-0.67,0.42-1.41,0.74-2.22,0.96c-0.82,0.22-1.64,0.33-2.47,0.33c-0.69,0-1.28-0.1-1.77-0.31c-0.49-0.21-0.89-0.55-1.21-1.02
		c-0.32-0.47-0.55-1.14-0.71-2c-0.11-0.62-0.17-1.4-0.2-2.26c0.78-0.01,1.51-0.02,2.17-0.05c1.05-0.04,2.16-0.1,3.33-0.19
		c1.16-0.08,2.22-0.22,3.16-0.42c0.19-0.75,0.33-1.61,0.39-2.58c0.07-0.97,0.1-1.91,0.1-2.83c0-2.25-0.44-3.92-1.33-5.03
		c-0.89-1.11-2.2-1.66-3.95-1.66c-0.91,0-1.82,0.14-2.7,0.42c-0.89,0.28-1.68,0.82-2.37,1.62c-0.69,0.81-1.25,2-1.66,3.58
		c-0.42,1.58-0.62,3.67-0.62,6.28c0,2.02,0.16,3.67,0.48,4.95C213.92,28.99,214.38,29.97,214.98,30.67z M217.62,15.59
		c0.33-0.65,0.71-1.11,1.14-1.37c0.43-0.26,0.88-0.4,1.35-0.4c0.92,0,1.53,0.31,1.85,0.94c0.32,0.62,0.49,1.68,0.52,3.18
		c0,0.39-0.01,0.8-0.04,1.25c-0.03,0.44-0.08,0.86-0.17,1.25c-0.55,0.17-1.23,0.28-2.02,0.35c-0.79,0.07-1.57,0.11-2.33,0.13
		c-0.4,0.01-0.84,0.01-1.31,0c0.04-1.01,0.12-1.9,0.23-2.65C217.03,17.14,217.28,16.24,217.62,15.59z"/>
	<path class="st0" d="M236.39,29.42c0.6,1.14,1.37,1.93,2.33,2.39c0.96,0.46,2.11,0.69,3.47,0.69c1.83,0,3.32-0.48,4.47-1.43
		c1.15-0.96,2-2.54,2.54-4.76c0.54-2.22,0.81-5.24,0.81-9.07c0-2.83-0.13-5.18-0.4-7.05c-0.26-1.87-0.69-3.37-1.27-4.49
		c-0.58-1.12-1.34-1.93-2.29-2.41c-0.94-0.49-2.08-0.73-3.41-0.73c-1.8,0-3.29,0.47-4.47,1.39c-1.18,0.93-2.06,2.47-2.64,4.64
		c-0.58,2.16-0.87,5.09-0.87,8.77c0,2.99,0.14,5.47,0.42,7.42C235.36,26.74,235.79,28.28,236.39,29.42z M238.87,11.04
		c0.28-1.77,0.72-3.05,1.33-3.83c0.61-0.78,1.4-1.16,2.37-1.16c1,0,1.77,0.36,2.31,1.08c0.54,0.72,0.92,1.91,1.14,3.56
		c0.22,1.65,0.33,3.86,0.33,6.63c0,2.8-0.13,5.07-0.39,6.8c-0.26,1.73-0.68,2.98-1.25,3.74c-0.57,0.76-1.37,1.14-2.39,1.14
		c-0.97,0-1.74-0.37-2.31-1.1c-0.57-0.73-0.97-1.89-1.21-3.47c-0.24-1.58-0.35-3.66-0.35-6.24
		C238.45,15.2,238.59,12.81,238.87,11.04z"/>
	<path class="st0" d="M258.78,10.87c-1.03,0-2.02,0.17-2.99,0.5s-1.86,0.79-2.66,1.37v19.34c1.14,0,1.94-0.01,2.41-0.04
		c0.47-0.03,0.76-0.08,0.85-0.17c0.1-0.08,0.15-0.24,0.15-0.46l0.04-16.38c0.39-0.3,0.82-0.53,1.31-0.69
		c0.48-0.15,0.96-0.23,1.43-0.23c0.36,0,0.71,0.04,1.04,0.13c0.33,0.08,0.65,0.21,0.96,0.37c0.14-0.36,0.24-0.73,0.29-1.1
		c0.06-0.37,0.08-0.67,0.08-0.89c0-0.58-0.21-1.02-0.64-1.31C260.62,11.02,259.87,10.87,258.78,10.87z"/>
	<path class="st0" d="M265.98,3.3c-0.67,0-1.15,0.23-1.46,0.69c-0.31,0.46-0.47,1.06-0.5,1.81c0,0.97,0.15,1.64,0.46,2.02
		c0.3,0.37,0.72,0.58,1.25,0.6c0.64,0,1.12-0.24,1.43-0.73c0.32-0.48,0.48-1.14,0.48-1.98c0.03-0.89-0.08-1.51-0.33-1.87
		C267.06,3.48,266.62,3.3,265.98,3.3z"/>
	<path class="st0" d="M264.4,11.72c-0.19,0.21-0.29,0.58-0.29,1.1v19.25c1.16,0,1.98-0.01,2.45-0.04c0.47-0.03,0.75-0.08,0.85-0.17
		c0.1-0.08,0.15-0.24,0.15-0.46V11.29c-0.91,0-1.62,0.02-2.12,0.06C264.94,11.39,264.59,11.52,264.4,11.72z"/>
	<path class="st0" d="M284.19,36.84c0.55-1.04,0.83-2.16,0.83-3.35c0-1.11-0.23-1.98-0.69-2.62c-0.46-0.64-1.1-1.13-1.93-1.48
		c-0.83-0.35-1.79-0.6-2.87-0.77c-1.39-0.17-2.55-0.33-3.49-0.5c-0.94-0.17-1.41-0.43-1.41-0.79c0-0.3,0.13-0.63,0.37-0.98
		c0.22-0.31,0.48-0.59,0.75-0.86c0.56,0.11,1.16,0.17,1.83,0.17c1.61,0,2.9-0.3,3.89-0.92c0.98-0.61,1.71-1.46,2.16-2.54
		c0.46-1.08,0.69-2.36,0.69-3.83c0-1.5-0.28-2.7-0.85-3.62c-0.21-0.34-0.46-0.63-0.72-0.89c0.58,0.15,1.08,0.23,1.49,0.23
		c0.36,0,0.64-0.1,0.85-0.31c0.21-0.21,0.31-0.55,0.31-1.02c0-0.39-0.04-0.71-0.1-0.98c-0.07-0.26-0.15-0.46-0.23-0.6h-5.09
		c-0.26-0.07-0.51-0.16-0.79-0.21c-0.46-0.08-0.84-0.13-1.14-0.13c-1.36,0-2.56,0.25-3.62,0.75c-1.05,0.5-1.87,1.31-2.45,2.43
		c-0.58,1.12-0.87,2.6-0.87,4.43c0,1.33,0.19,2.54,0.58,3.64c0.38,1.09,1.04,1.95,1.97,2.58c-0.36,0.28-0.7,0.57-1,0.87
		c-0.51,0.51-0.91,1.01-1.19,1.5c-0.28,0.49-0.43,0.95-0.46,1.39c0,0.55,0.25,1.03,0.75,1.41c0.45,0.35,1.08,0.62,1.85,0.84
		c-0.1,0.07-0.2,0.11-0.29,0.18c-0.85,0.62-1.55,1.34-2.1,2.16c-0.55,0.82-0.83,1.71-0.83,2.68c0,0.69,0.17,1.39,0.5,2.08
		s0.98,1.28,1.95,1.75c0.97,0.47,2.38,0.71,4.24,0.71c1.86,0,3.37-0.31,4.53-0.94C282.78,38.71,283.64,37.88,284.19,36.84z
		 M275.09,15.42c0.28-0.73,0.66-1.26,1.16-1.58c0.5-0.32,1.04-0.48,1.62-0.48c1.02,0,1.79,0.33,2.29,0.98
		c0.5,0.65,0.75,1.74,0.75,3.26c0,1.19-0.11,2.2-0.33,3.02c-0.22,0.82-0.56,1.43-1.02,1.85c-0.46,0.42-1.06,0.62-1.81,0.62
		c-0.86,0-1.51-0.19-1.95-0.56s-0.74-0.92-0.89-1.62c-0.15-0.71-0.23-1.55-0.23-2.52C274.67,17.15,274.81,16.16,275.09,15.42z
		 M277.37,37.15c-0.94,0-1.67-0.09-2.18-0.27c-0.51-0.18-0.86-0.44-1.04-0.79c-0.18-0.35-0.27-0.73-0.27-1.14
		c0-0.61,0.17-1.21,0.5-1.79s0.76-1.11,1.29-1.58c0.17-0.15,0.33-0.26,0.5-0.39c0.25,0.03,0.48,0.07,0.75,0.09
		c1.22,0.08,2.17,0.21,2.85,0.39c0.68,0.18,1.16,0.44,1.43,0.79c0.28,0.35,0.42,0.84,0.42,1.48c0,0.72-0.33,1.43-1,2.14
		C279.95,36.8,278.87,37.15,277.37,37.15z"/>
	<path class="st0" d="M288.02,11.72c-0.19,0.21-0.29,0.58-0.29,1.1v19.25c1.16,0,1.98-0.01,2.45-0.04c0.47-0.03,0.75-0.08,0.85-0.17
		c0.1-0.08,0.15-0.24,0.15-0.46V11.29c-0.91,0-1.62,0.02-2.12,0.06C288.56,11.39,288.21,11.52,288.02,11.72z"/>
	<path class="st0" d="M289.35,8.42c0.64,0,1.12-0.24,1.43-0.73c0.32-0.48,0.48-1.14,0.48-1.98c0.03-0.89-0.08-1.51-0.33-1.87
		s-0.69-0.54-1.33-0.54c-0.67,0-1.15,0.23-1.46,0.69c-0.31,0.46-0.47,1.06-0.5,1.81c0,0.97,0.15,1.64,0.46,2.02
		C288.41,8.19,288.82,8.39,289.35,8.42z"/>
	<path class="st0" d="M298.72,31.87c0.1-0.08,0.15-0.24,0.15-0.46V14.57c0.44-0.28,0.96-0.47,1.54-0.58
		c0.58-0.11,1.11-0.17,1.58-0.17c1.03,0,1.69,0.28,2,0.83c0.3,0.55,0.46,1.48,0.46,2.79v14.64c1.16,0,1.98-0.01,2.45-0.04
		c0.47-0.03,0.76-0.08,0.87-0.17c0.11-0.08,0.17-0.24,0.17-0.46V16.44c0-1.36-0.18-2.44-0.54-3.24c-0.36-0.8-0.97-1.39-1.83-1.77
		c-0.86-0.37-2.01-0.56-3.45-0.56c-0.75,0-1.53,0.07-2.33,0.21c-0.8,0.14-1.58,0.31-2.33,0.52c-0.75,0.21-1.4,0.44-1.95,0.69v19.79
		c1.11,0,1.9-0.01,2.37-0.04C298.34,32.01,298.63,31.95,298.72,31.87z"/>
	<path class="st0" d="M322.61,27.4c0.03-1.4,0.05-2.9,0.06-4.49c0.01-1.59,0.02-3.18,0.02-4.76v-2.2c0-1.89-0.41-3.2-1.23-3.95
		c-0.82-0.75-2.13-1.12-3.93-1.12c-1.58,0-2.94,0.13-4.08,0.4c-1.14,0.26-1.89,0.51-2.25,0.73c-0.17,0.11-0.28,0.28-0.35,0.5
		c-0.07,0.22-0.1,0.43-0.1,0.62c0,0.28,0.03,0.59,0.08,0.94c0.06,0.35,0.18,0.69,0.37,1.02c0.61-0.25,1.41-0.47,2.41-0.67
		c1-0.19,2.04-0.29,3.12-0.29c0.55,0,1.02,0.08,1.39,0.23c0.37,0.15,0.67,0.4,0.87,0.75c0.21,0.35,0.31,0.85,0.31,1.52
		c0,0.39,0,0.84,0,1.35c0,0.51,0,1.16,0,1.93c-0.42-0.19-0.92-0.33-1.52-0.42c-0.6-0.08-1.12-0.13-1.56-0.13
		c-0.69,0-1.37,0.08-2.04,0.25c-0.67,0.17-1.26,0.49-1.79,0.98c-0.53,0.49-0.94,1.18-1.25,2.08c-0.31,0.9-0.46,2.07-0.46,3.51
		c0,1.44,0.17,2.58,0.5,3.41s0.78,1.46,1.33,1.89c0.55,0.43,1.19,0.71,1.89,0.83c0.71,0.13,1.45,0.19,2.22,0.19
		c1.36,0,2.52-0.15,3.49-0.46c0.97-0.3,1.73-0.62,2.29-0.96C322.53,30.03,322.59,28.8,322.61,27.4z M319.31,24.68
		c-0.01,0.86-0.03,1.68-0.04,2.45c-0.01,0.78-0.05,1.39-0.1,1.83c-0.17,0.19-0.46,0.36-0.87,0.5c-0.42,0.14-0.85,0.21-1.29,0.21
		c-0.42,0-0.79-0.04-1.12-0.12c-0.33-0.08-0.62-0.26-0.87-0.52c-0.25-0.26-0.44-0.63-0.56-1.1c-0.13-0.47-0.19-1.08-0.19-1.83
		c0-0.92,0.08-1.65,0.25-2.2c0.17-0.55,0.39-0.98,0.66-1.27c0.28-0.29,0.6-0.49,0.98-0.58c0.37-0.1,0.78-0.15,1.23-0.15
		c0.28,0,0.6,0.03,0.98,0.08c0.37,0.06,0.7,0.15,0.98,0.29C319.33,23.01,319.32,23.82,319.31,24.68z"/>
	<path class="st0" d="M329.37,31.87c0.1-0.08,0.15-0.24,0.15-0.46V1.51c-0.89,0-1.58,0.02-2.08,0.06c-0.5,0.04-0.84,0.17-1.02,0.37
		c-0.18,0.21-0.27,0.58-0.27,1.1v29.03c1.14,0,1.93-0.01,2.39-0.04C329,32.01,329.27,31.95,329.37,31.87z"/>
</g>
</svg>
